<svg width="20" height="20" viewBox="0 0 20 20" fill="none" xmlns="http://www.w3.org/2000/svg">
<g id="source code">
<path id="Vector" d="M12.9167 7.5L13.0597 7.64297C14.1708 8.75408 14.7263 9.30967 14.7263 10C14.7263 10.6903 14.1708 11.2459 13.0597 12.357L12.9167 12.5" stroke="#D8D8D8" stroke-linecap="round"/>
<path id="Vector_2" d="M11.0785 5.97534L10.0001 10L8.92167 14.0247" stroke="#D8D8D8" stroke-linecap="round"/>
<path id="Vector_3" d="M7.08328 7.5L6.94031 7.64297C5.8292 8.75408 5.27364 9.30967 5.27364 10C5.27364 10.6903 5.8292 11.2459 6.94031 12.357L7.08328 12.5" stroke="#D8D8D8" stroke-linecap="round"/>
<path id="Vector_4" d="M18.3333 10C18.3333 13.9283 18.3333 15.8926 17.1129 17.1129C15.8926 18.3333 13.9283 18.3333 10 18.3333C6.07163 18.3333 4.10744 18.3333 2.88706 17.1129C1.66667 15.8926 1.66667 13.9283 1.66667 10C1.66667 6.07162 1.66667 4.10744 2.88706 2.88706C4.10744 1.66666 6.07163 1.66666 10 1.66666C13.9283 1.66666 15.8926 1.66666 17.1129 2.88706C17.9244 3.69851 18.1963 4.83879 18.2874 6.66666" stroke="#D8D8D8" stroke-linecap="round"/>
</g>
</svg>
